<svg xmlns="http://www.w3.org/2000/svg" width="120" height="24" fill="none"><path d="M9.384 23.456h2.64V7.04h-1.64l-1 .888c-.84-.672-1.944-1.08-3.216-1.08C2.616 6.848 0 9.536 0 13.04s2.616 6.192 6.168 6.192c1.272 0 2.376-.384 3.216-1.056v5.28Zm-3.192-6.744c-2.04 0-3.48-1.584-3.48-3.672s1.44-3.672 3.48-3.672c1.32 0 2.544.648 3.192 1.632v4.08c-.648.984-1.872 1.632-3.192 1.632ZM20.888 16.712c-2.064 0-3.504-1.584-3.504-3.672s1.44-3.672 3.504-3.672c2.04 0 3.504 1.584 3.504 3.672s-1.464 3.672-3.504 3.672Zm0 2.52c3.552 0 6.216-2.688 6.216-6.192s-2.664-6.192-6.216-6.192c-3.576 0-6.216 2.688-6.216 6.192s2.64 6.192 6.216 6.192ZM39.4 19.04h1.64v-12H39.4l-1 .888c-.84-.672-1.944-1.08-3.216-1.08-3.552 0-6.168 2.688-6.168 6.192s2.616 6.192 6.168 6.192c1.272 0 2.376-.384 3.216-1.056l1 .864Zm-4.192-2.328c-2.04 0-3.48-1.584-3.48-3.672s1.44-3.672 3.48-3.672c1.32 0 2.544.648 3.192 1.632v4.08c-.648.984-1.872 1.632-3.192 1.632ZM44.407 19.04h2.64V2h-2.64v17.04ZM53.648 19.232c2.543 0 4.295-1.464 4.295-3.576 0-1.872-1.127-2.928-3.143-3.72l-.864-.312c-1.129-.456-1.536-.84-1.536-1.464 0-.6.623-.96 1.32-.96.767 0 1.343.336 1.752 1.08l1.944-1.344c-.888-1.488-2.208-2.088-3.744-2.088-2.232 0-3.864 1.44-3.864 3.384 0 1.632.888 2.904 2.928 3.696l.84.336c1.103.408 1.608.816 1.608 1.512 0 .648-.624 1.104-1.536 1.104-1.2 0-1.873-.552-2.449-1.536l-2.015 1.44c.983 1.68 2.568 2.448 4.464 2.448Z" fill="#000"/><rect opacity=".4" x="74" width="46" height="24" rx="4" fill="#50D38D"/><path d="M84.674 10.686c.494-.747 1.27-1.12 2.324-1.12 1.045 0 1.867.364 2.464 1.092.606.728.91 1.633.91 2.716 0 1.083-.303 1.988-.91 2.716-.597.719-1.419 1.078-2.464 1.078-1.13 0-1.946-.401-2.45-1.204V17h-1.54V6.5h1.666v4.186Zm-.056 2.688c0 .672.182 1.227.546 1.666.373.439.873.658 1.498.658.616 0 1.11-.22 1.484-.658.373-.448.56-1.003.56-1.666 0-.681-.187-1.241-.56-1.68-.374-.439-.868-.658-1.484-.658-.626 0-1.125.22-1.498.658-.364.439-.546.999-.546 1.68ZM98.6 13.85h-5.53c.066.579.276 1.04.63 1.386.355.336.822.504 1.4.504a1.96 1.96 0 0 0 1.036-.28c.308-.187.528-.439.658-.756h1.68a3.411 3.411 0 0 1-1.26 1.792c-.606.448-1.325.672-2.156.672-1.083 0-1.96-.36-2.632-1.078-.663-.719-.994-1.629-.994-2.73 0-1.073.336-1.974 1.008-2.702.672-.728 1.54-1.092 2.604-1.092s1.923.36 2.576 1.078c.663.71.994 1.605.994 2.688l-.014.518Zm-3.556-2.926c-.522 0-.956.154-1.302.462-.345.308-.56.719-.644 1.232h3.864c-.075-.513-.28-.924-.616-1.232-.336-.308-.77-.462-1.302-.462ZM103.401 15.516v1.442c-.206.056-.495.084-.868.084-1.419 0-2.128-.714-2.128-2.142v-3.836h-1.106v-1.33h1.106v-1.89h1.666v1.89h1.358v1.33h-1.358v3.668c0 .57.27.854.812.854l.518-.07ZM109.24 13.584l-1.932.294c-.906.14-1.358.485-1.358 1.036 0 .635.429.952 1.288.952.644 0 1.138-.173 1.484-.518.345-.345.518-.78.518-1.302v-.462Zm-2.338 3.584c-.859 0-1.498-.2-1.918-.602-.42-.401-.63-.933-.63-1.596 0-1.27.928-2.035 2.786-2.296l2.1-.294v-.112c0-.887-.518-1.33-1.554-1.33-.906 0-1.419.36-1.54 1.078h-1.624c.074-.71.368-1.293.882-1.75.522-.467 1.297-.7 2.324-.7 1.036 0 1.815.238 2.338.714.532.476.798 1.143.798 2.002v3.346c0 .588.07 1.045.21 1.372h-1.582c-.01 0-.024-.033-.042-.098-.01-.075-.024-.191-.042-.35a8.057 8.057 0 0 1-.014-.504c-.495.747-1.326 1.12-2.492 1.12Z" fill="#13AF5B"/></svg>