<svg xmlns="http://www.w3.org/2000/svg" width="422" height="369" fill="none"><rect x=".516" y=".516" width="420.968" height="79.839" rx="8" fill="#fff"/><path fill-rule="evenodd" clip-rule="evenodd" d="m44.56 23.977-17.902 1.317c-1.444.125-1.947 1.066-1.947 2.194v19.568c0 .879.314 1.63 1.068 2.634l4.208 5.457c.692.878 1.32 1.066 2.64 1.003l20.79-1.254c1.759-.125 2.262-.941 2.262-2.32V30.561c0-.713-.283-.92-1.115-1.527l-.143-.104-5.715-4.013c-1.381-1.003-1.947-1.13-4.145-.941ZM33.099 30.2c-1.697.114-2.083.14-3.047-.642L27.6 27.615c-.25-.252-.125-.565.503-.627l17.212-1.255c1.444-.126 2.197.377 2.763.816l2.952 2.132c.126.063.44.439.062.439l-17.775 1.066-.219.015Zm-1.98 22.186V33.698c0-.815.251-1.191 1.005-1.255l20.414-1.191c.692-.063 1.006.377 1.006 1.191v18.564c0 .816-.126 1.506-1.257 1.568l-19.535 1.13c-1.13.062-1.633-.314-1.633-1.318ZM50.403 34.7c.125.565 0 1.13-.566 1.193l-.942.187v13.797c-.817.44-1.57.69-2.199.69-1.005 0-1.257-.314-2.01-1.254l-6.157-9.658v9.345l1.949.439s0 1.128-1.572 1.128l-4.333.251c-.126-.25 0-.878.44-1.003l1.13-.313V37.148l-1.57-.126c-.126-.565.188-1.38 1.068-1.443l4.648-.313 6.407 9.784v-8.655l-1.633-.188c-.126-.69.376-1.192 1.005-1.254l4.335-.252Z" fill="#000"/><path d="M76.257 39.768h3.367c.749 0 1.304-.174 1.665-.523.374-.348.561-.832.561-1.451 0-.62-.187-1.11-.56-1.471-.375-.362-.93-.542-1.666-.542h-3.367v3.987Zm0 2.168v5.419h-2.342V33.613h5.69c1.561 0 2.716.387 3.465 1.161.761.762 1.142 1.768 1.142 3.02 0 1.238-.388 2.238-1.162 3-.774.761-1.922 1.142-3.445 1.142h-3.348Zm15.074-4.704v2.149a3.696 3.696 0 0 0-.523-.039c-1.729 0-2.593.93-2.593 2.787v5.226h-2.303V37.31h2.129v1.393c.568-.993 1.555-1.49 2.961-1.49l.329.02Zm5.782 10.355c-1.548 0-2.806-.51-3.774-1.529-.955-1.02-1.432-2.258-1.432-3.716 0-1.458.477-2.697 1.432-3.716.968-1.032 2.226-1.548 3.774-1.548 1.562 0 2.82.516 3.775 1.548.967 1.02 1.451 2.258 1.451 3.716 0 1.458-.484 2.697-1.451 3.716-.955 1.02-2.213 1.53-3.775 1.53Zm-2.903-5.245c0 .955.271 1.73.813 2.323.555.593 1.252.89 2.09.89.852 0 1.549-.297 2.09-.89.555-.594.833-1.368.833-2.323 0-.968-.278-1.748-.832-2.342-.542-.593-1.24-.89-2.09-.89-.84 0-1.536.297-2.091.89-.542.594-.813 1.374-.813 2.342Zm11.424-6.716c-.426 0-.774-.13-1.045-.387-.271-.271-.407-.613-.407-1.026 0-.426.136-.774.407-1.045.271-.271.619-.407 1.045-.407.413 0 .755.136 1.026.407.271.27.406.62.406 1.045 0 .413-.135.755-.406 1.026-.271.258-.613.387-1.026.387Zm-2.748 15.929v-2.052c.103.013.219.02.348.02.452 0 .768-.09.948-.271.194-.18.291-.536.291-1.065V37.31h2.303v10.877c0 1.136-.297 1.987-.89 2.555-.594.568-1.394.852-2.4.852l-.6-.039ZM118.809 43h-7.645c.09.8.38 1.439.871 1.916.49.465 1.135.697 1.935.697.529 0 1.006-.129 1.432-.387.426-.258.729-.606.91-1.045h2.323a4.721 4.721 0 0 1-1.742 2.477c-.839.62-1.833.93-2.981.93-1.497 0-2.71-.498-3.639-1.491-.916-.994-1.374-2.252-1.374-3.774 0-1.484.465-2.73 1.394-3.736.929-1.006 2.129-1.51 3.6-1.51s2.658.497 3.561 1.49c.916.981 1.374 2.22 1.374 3.717l-.019.716Zm-4.916-4.045c-.723 0-1.323.213-1.8.639-.478.425-.775.993-.891 1.703h5.342c-.103-.71-.387-1.277-.851-1.703-.465-.426-1.065-.639-1.8-.639Zm6.385 3.387c0-1.484.471-2.729 1.412-3.735.942-1.02 2.142-1.53 3.6-1.53 1.381 0 2.478.394 3.291 1.181.826.774 1.316 1.671 1.471 2.69h-2.362c-.141-.554-.432-1-.87-1.335-.426-.335-.942-.503-1.549-.503-.813 0-1.464.303-1.955.91-.49.593-.735 1.367-.735 2.322 0 .955.245 1.73.735 2.323.491.593 1.142.89 1.955.89.607 0 1.123-.168 1.549-.503.438-.336.729-.78.87-1.336h2.362c-.155 1.02-.645 1.923-1.471 2.71-.813.774-1.91 1.161-3.291 1.161-1.458 0-2.658-.503-3.6-1.51-.941-1.019-1.412-2.264-1.412-3.735Zm16.243 2.961v1.994c-.283.077-.683.116-1.2.116-1.961 0-2.942-.987-2.942-2.961v-5.303h-1.529v-1.84h1.529v-2.612h2.304v2.613h1.877v1.838h-1.877v5.071c0 .788.374 1.181 1.122 1.181l.716-.097Zm9.21-6.677c.684-1.032 1.755-1.548 3.213-1.548 1.445 0 2.581.503 3.407 1.51.838 1.006 1.258 2.257 1.258 3.754 0 1.497-.42 2.748-1.258 3.755-.826.993-1.962 1.49-3.407 1.49-1.561 0-2.69-.555-3.387-1.664v1.432h-2.129V32.839h2.303v5.787Zm-.077 3.716c0 .93.251 1.697.755 2.303.516.607 1.206.91 2.071.91.851 0 1.535-.303 2.051-.91.516-.62.774-1.387.774-2.303 0-.942-.258-1.716-.774-2.322-.516-.607-1.2-.91-2.051-.91-.865 0-1.555.303-2.071.91-.504.606-.755 1.38-.755 2.322Zm15.498-5.11v2.149a3.701 3.701 0 0 0-.522-.039c-1.729 0-2.594.93-2.594 2.787v5.226h-2.303V37.31h2.129v1.393c.568-.993 1.555-1.49 2.961-1.49l.329.02Zm2.83-1.606c-.426 0-.774-.13-1.045-.387-.271-.271-.407-.613-.407-1.026 0-.426.136-.774.407-1.045.271-.271.619-.407 1.045-.407.413 0 .755.136 1.026.407.271.27.406.62.406 1.045 0 .413-.135.755-.406 1.026-.271.258-.613.387-1.026.387Zm-1.161 11.729V37.31h2.303v10.045h-2.303ZM177.157 43h-7.645c.09.8.38 1.439.871 1.916.49.465 1.135.697 1.935.697.529 0 1.007-.129 1.432-.387.426-.258.729-.606.91-1.045h2.323a4.721 4.721 0 0 1-1.742 2.477c-.839.62-1.833.93-2.981.93-1.497 0-2.71-.498-3.639-1.491-.916-.994-1.374-2.252-1.374-3.774 0-1.484.465-2.73 1.394-3.736.929-1.006 2.129-1.51 3.6-1.51s2.658.497 3.561 1.49c.916.981 1.374 2.22 1.374 3.717l-.019.716Zm-4.916-4.045c-.723 0-1.323.213-1.8.639-.478.425-.775.993-.891 1.703h5.342c-.103-.71-.387-1.277-.851-1.703-.465-.426-1.065-.639-1.8-.639Zm7.449-1.645v-1.065c0-1.135.29-1.987.871-2.554.581-.568 1.374-.852 2.381-.852l.774.058v2.032c-.077-.026-.219-.038-.426-.038-.464 0-.8.116-1.006.348-.194.22-.291.6-.291 1.142v.929h1.781v1.838h-1.781v8.207h-2.303v-8.206h-1.606v-1.84h1.606Z" fill="#746E8C"/><rect x=".516" y="96.484" width="420.968" height="79.839" rx="8" fill="#fff"/><path d="M78.58 143.323h-4.665v-13.742h4.664c2.323 0 4.13.632 5.42 1.897 1.303 1.251 1.955 2.909 1.955 4.974 0 2.064-.652 3.729-1.955 4.993-1.29 1.252-3.097 1.878-5.42 1.878Zm3.638-3.407c.839-.838 1.258-1.993 1.258-3.464 0-1.471-.42-2.62-1.258-3.445-.826-.839-2.064-1.258-3.716-1.258h-2.245v9.406h2.245c1.652 0 2.89-.413 3.716-1.239Zm15.27-.948h-7.645c.09.8.38 1.439.871 1.916.49.465 1.135.697 1.935.697a2.71 2.71 0 0 0 1.433-.387c.425-.258.729-.607.91-1.045h2.322a4.715 4.715 0 0 1-1.742 2.477c-.839.619-1.832.929-2.98.929-1.497 0-2.71-.497-3.64-1.49-.915-.994-1.373-2.252-1.373-3.775 0-1.483.464-2.729 1.393-3.735.93-1.006 2.13-1.51 3.6-1.51 1.471 0 2.658.497 3.561 1.491.916.98 1.374 2.219 1.374 3.716l-.019.716Zm-4.916-4.045c-.723 0-1.323.213-1.8.638-.477.426-.774.994-.89 1.704h5.342c-.104-.71-.388-1.278-.852-1.704-.465-.425-1.064-.638-1.8-.638Zm10.488 8.632c-1.38 0-2.419-.323-3.116-.968-.697-.645-1.077-1.471-1.142-2.477h2.226c.026.464.226.839.6 1.122.374.284.897.426 1.568.426.593 0 1.051-.103 1.374-.309.322-.207.484-.484.484-.833 0-.387-.2-.671-.6-.851-.387-.194-.865-.336-1.432-.426a19.805 19.805 0 0 1-1.704-.349 2.989 2.989 0 0 1-1.451-.89c-.387-.439-.581-1.039-.581-1.8 0-.877.361-1.619 1.084-2.226.735-.619 1.703-.929 2.903-.929.684 0 1.284.11 1.8.329.529.207.936.484 1.219.833.297.348.517.703.659 1.064.154.361.245.729.271 1.103h-2.207a1.553 1.553 0 0 0-.523-1.025c-.296-.284-.722-.426-1.277-.426-.555 0-.981.109-1.277.329a1 1 0 0 0-.446.871c0 .348.194.613.581.793.4.181.884.316 1.452.407.567.09 1.135.219 1.703.387a2.825 2.825 0 0 1 1.432.91c.4.451.6 1.051.6 1.8 0 .903-.368 1.651-1.103 2.245-.723.593-1.755.89-3.097.89Zm7.432-11.961c-.426 0-.775-.129-1.046-.387-.271-.271-.406-.613-.406-1.026 0-.426.135-.774.406-1.045.271-.271.62-.407 1.046-.407.412 0 .754.136 1.025.407.271.271.407.619.407 1.045 0 .413-.136.755-.407 1.026-.271.258-.613.387-1.025.387Zm-1.162 11.729v-10.045h2.304v10.045h-2.304Zm12.401-8.613v-1.432h2.129v9.619c0 1.368-.426 2.484-1.278 3.348-.838.878-2.012 1.316-3.522 1.316-1.381 0-2.465-.354-3.252-1.064-.774-.71-1.226-1.523-1.355-2.439h2.304c.284 1.02 1.064 1.529 2.342 1.529.774 0 1.374-.219 1.8-.658.438-.426.658-1 .658-1.722v-1.568c-.671 1.032-1.729 1.548-3.175 1.548-1.393 0-2.516-.484-3.367-1.451-.839-.981-1.258-2.187-1.258-3.62 0-1.432.419-2.632 1.258-3.6.851-.98 1.974-1.471 3.367-1.471 1.536 0 2.652.555 3.349 1.665Zm-.078 3.406c0-.89-.258-1.619-.774-2.187-.516-.568-1.193-.851-2.032-.851-.826 0-1.497.283-2.013.851-.516.568-.774 1.297-.774 2.187 0 .878.258 1.607.774 2.187.516.568 1.187.852 2.013.852.839 0 1.516-.284 2.032-.852.516-.58.774-1.309.774-2.187Zm7.044-4.838v1.335c.232-.439.613-.806 1.142-1.103.542-.31 1.194-.465 1.955-.465 1.187 0 2.103.362 2.748 1.084.658.723.987 1.684.987 2.884v6.31h-2.303v-6.02c0-.709-.167-1.264-.503-1.664-.323-.413-.819-.619-1.49-.619-.736 0-1.316.219-1.742.658-.413.438-.62 1.045-.62 1.819v5.826h-2.303v-10.045h2.129Zm12.978 10.277c-1.38 0-2.419-.323-3.116-.968-.697-.645-1.077-1.471-1.142-2.477h2.226c.026.464.226.839.6 1.122.374.284.897.426 1.568.426.593 0 1.051-.103 1.374-.309.323-.207.484-.484.484-.833 0-.387-.2-.671-.6-.851-.387-.194-.865-.336-1.432-.426a19.805 19.805 0 0 1-1.704-.349 2.986 2.986 0 0 1-1.451-.89c-.387-.439-.581-1.039-.581-1.8 0-.877.361-1.619 1.084-2.226.736-.619 1.703-.929 2.903-.929.684 0 1.284.11 1.8.329.529.207.936.484 1.22.833.296.348.516.703.658 1.064.155.361.245.729.271 1.103h-2.207a1.552 1.552 0 0 0-.522-1.025c-.297-.284-.723-.426-1.278-.426s-.98.109-1.277.329c-.297.206-.445.497-.445.871 0 .348.193.613.58.793.4.181.884.316 1.452.407.568.09 1.135.219 1.703.387a2.825 2.825 0 0 1 1.432.91c.4.451.6 1.051.6 1.8 0 .903-.367 1.651-1.103 2.245-.722.593-1.755.89-3.097.89Z" fill="#746E8C"/><g clip-path="url(#a)"><path d="m30.926 122.464 9.073-.98 9.072.98 7.024 9.633L40 151.246l-16.097-19.149 7.024-9.633Z" fill="#FDB300"/><path d="M30.422 132.097 40 151.246l-16.097-19.149h6.52ZM49.578 132.096 40 151.245l16.097-19.149h-6.52Z" fill="#EA6C00"/><path d="M30.422 132.096h19.153l-9.577 19.149-9.576-19.149Z" fill="#FDAD00"/><path d="m39.998 121.484-9.072.98-.504 9.633 9.576-10.613Z" fill="#FDD231"/><path d="m39.998 121.484 9.072.98.504 9.633-9.576-10.613Z" fill="#FDD231"/><path d="m56.098 132.096-7.024-9.633.504 9.633h6.52ZM23.902 132.096l7.024-9.633-.504 9.633h-6.52Z" fill="#FDAD00"/><path d="m39.998 121.484-9.576 10.613h19.153l-9.577-10.613Z" fill="#FEEEB7"/></g><rect x=".516" y="192.452" width="420.968" height="79.839" rx="8" fill="#fff"/><path d="M73.16 232.4c0-2.104.639-3.82 1.916-5.149 1.29-1.329 2.942-1.993 4.955-1.993 1.716 0 3.174.477 4.374 1.432 1.2.955 1.942 2.245 2.226 3.871h-2.497c-.232-.955-.716-1.703-1.451-2.245-.723-.542-1.607-.813-2.652-.813-1.368 0-2.445.445-3.232 1.335-.775.878-1.162 2.065-1.162 3.562 0 1.496.388 2.69 1.162 3.58.787.891 1.864 1.336 3.232 1.336 1.045 0 1.929-.271 2.652-.813.735-.542 1.219-1.29 1.451-2.245h2.497c-.284 1.626-1.026 2.916-2.226 3.871-1.2.955-2.658 1.432-4.374 1.432-2.013 0-3.665-.665-4.955-1.994-1.277-1.329-1.916-3.051-1.916-5.167Zm22.09 2.632v-5.787h2.303v10.045h-2.13v-1.297c-.231.439-.612.807-1.141 1.103-.516.284-1.155.426-1.916.426-1.187 0-2.103-.355-2.749-1.064-.632-.723-.948-1.684-.948-2.884v-6.329h2.303v6.019c0 1.523.652 2.284 1.955 2.284.723 0 1.29-.213 1.703-.639.413-.438.62-1.064.62-1.877Zm8.528 4.49c-1.38 0-2.419-.322-3.116-.967-.696-.646-1.077-1.471-1.142-2.478h2.226c.026.465.226.839.6 1.123.374.284.897.426 1.568.426.594 0 1.052-.104 1.374-.31.323-.207.484-.484.484-.832 0-.388-.2-.671-.6-.852-.387-.194-.864-.336-1.432-.426a19.7 19.7 0 0 1-1.703-.348 2.994 2.994 0 0 1-1.452-.891c-.387-.438-.581-1.038-.581-1.8 0-.877.362-1.619 1.084-2.225.736-.62 1.703-.929 2.903-.929.684 0 1.284.109 1.8.329.529.206.936.484 1.22.832.297.348.516.703.658 1.064.155.362.245.729.271 1.104h-2.207a1.557 1.557 0 0 0-.522-1.026c-.297-.284-.723-.426-1.278-.426s-.98.11-1.277.329c-.297.207-.445.497-.445.871 0 .348.193.613.58.794.4.18.884.316 1.452.406.568.09 1.135.219 1.703.387a2.825 2.825 0 0 1 1.432.91c.4.451.6 1.051.6 1.8 0 .903-.367 1.651-1.103 2.245-.722.594-1.755.89-3.097.89Zm10.78-2.284v1.994c-.284.077-.684.116-1.2.116-1.961 0-2.942-.987-2.942-2.961v-5.303h-1.529v-1.839h1.529v-2.613h2.304v2.613h1.877v1.839h-1.877v5.071c0 .787.374 1.18 1.122 1.18l.716-.097Zm6.22 2.284c-1.549 0-2.807-.509-3.775-1.529-.954-1.019-1.432-2.258-1.432-3.716 0-1.458.478-2.697 1.432-3.716.968-1.032 2.226-1.548 3.775-1.548 1.561 0 2.819.516 3.774 1.548.968 1.019 1.451 2.258 1.451 3.716 0 1.458-.483 2.697-1.451 3.716-.955 1.02-2.213 1.529-3.774 1.529Zm-2.904-5.245c0 .955.271 1.729.813 2.323.555.593 1.252.89 2.091.89.851 0 1.548-.297 2.09-.89.555-.594.832-1.368.832-2.323 0-.968-.277-1.748-.832-2.342-.542-.593-1.239-.89-2.09-.89-.839 0-1.536.297-2.091.89-.542.594-.813 1.374-.813 2.342Zm19.011-.755v5.768h-2.303v-6.019c0-1.523-.632-2.284-1.897-2.284-.683 0-1.232.219-1.645.658-.4.439-.6 1.039-.6 1.8v5.845h-2.303v-10.045h2.129v1.335c.245-.451.619-.825 1.123-1.122.503-.297 1.129-.445 1.877-.445 1.394 0 2.4.529 3.019 1.587.852-1.058 1.987-1.587 3.407-1.587 1.174 0 2.077.367 2.71 1.103.632.722.948 1.677.948 2.864v6.31h-2.303v-6.019c0-1.523-.633-2.284-1.897-2.284-.697 0-1.252.226-1.665.677-.4.439-.6 1.058-.6 1.858Zm18.403 1.413h-7.645c.09.8.381 1.439.871 1.916.49.465 1.135.697 1.935.697.529 0 1.007-.129 1.433-.387.425-.258.729-.606.909-1.045h2.323a4.715 4.715 0 0 1-1.742 2.477c-.839.62-1.832.929-2.981.929-1.496 0-2.709-.496-3.638-1.49-.917-.994-1.375-2.252-1.375-3.774 0-1.484.465-2.729 1.394-3.736.929-1.006 2.129-1.509 3.6-1.509s2.658.496 3.561 1.49c.916.981 1.374 2.219 1.374 3.716l-.019.716Zm-4.916-4.045c-.723 0-1.323.213-1.8.639-.477.426-.774.993-.89 1.703h5.342c-.104-.71-.388-1.277-.852-1.703-.465-.426-1.065-.639-1.8-.639Zm12.462-1.723v2.149a3.662 3.662 0 0 0-.522-.039c-1.729 0-2.594.929-2.594 2.787v5.226h-2.303v-10.045h2.129v1.393c.568-.993 1.555-1.49 2.961-1.49l.329.019Zm7.103.078v-1.065c0-1.135.29-1.987.871-2.554.581-.568 1.374-.852 2.381-.852l.774.058v2.032c-.078-.026-.219-.038-.426-.038-.464 0-.8.116-1.006.348-.194.219-.291.6-.291 1.142v.929h1.781v1.839h-1.781v8.206h-2.303v-8.206h-1.606v-1.839h1.606Zm14.856 5.69h-7.645c.09.8.38 1.439.871 1.916.49.465 1.135.697 1.935.697.529 0 1.007-.129 1.432-.387.426-.258.729-.606.91-1.045h2.323a4.72 4.72 0 0 1-1.742 2.477c-.839.62-1.833.929-2.981.929-1.497 0-2.71-.496-3.639-1.49-.916-.994-1.374-2.252-1.374-3.774 0-1.484.465-2.729 1.394-3.736.929-1.006 2.129-1.509 3.6-1.509s2.658.496 3.561 1.49c.916.981 1.374 2.219 1.374 3.716l-.019.716Zm-4.916-4.045c-.723 0-1.323.213-1.8.639-.478.426-.774.993-.891 1.703h5.342c-.103-.71-.387-1.277-.851-1.703-.465-.426-1.065-.639-1.8-.639Zm16.294 4.045h-7.645c.091.8.381 1.439.871 1.916.491.465 1.136.697 1.936.697a2.71 2.71 0 0 0 1.432-.387c.426-.258.729-.606.91-1.045h2.322a4.71 4.71 0 0 1-1.742 2.477c-.838.62-1.832.929-2.98.929-1.497 0-2.71-.496-3.639-1.49-.916-.994-1.374-2.252-1.374-3.774 0-1.484.464-2.729 1.393-3.736.929-1.006 2.129-1.509 3.6-1.509s2.658.496 3.562 1.49c.916.981 1.374 2.219 1.374 3.716l-.02.716Zm-4.916-4.045c-.722 0-1.322.213-1.8.639-.477.426-.774.993-.89 1.703h5.342c-.103-.71-.387-1.277-.852-1.703-.464-.426-1.064-.639-1.8-.639Zm14.243-.329v-5.787h2.304v14.516h-2.13v-1.432c-.683 1.109-1.812 1.664-3.387 1.664-1.432 0-2.567-.496-3.406-1.49-.826-1.006-1.239-2.258-1.239-3.755 0-1.497.413-2.748 1.239-3.755.839-1.006 1.974-1.509 3.406-1.509 1.458 0 2.529.516 3.213 1.548Zm.097 3.716c0-.942-.258-1.716-.774-2.322-.503-.607-1.187-.91-2.052-.91-.851 0-1.535.303-2.051.91-.516.606-.775 1.38-.775 2.322 0 .916.259 1.684.775 2.303.516.607 1.2.91 2.051.91.865 0 1.549-.303 2.052-.91.516-.606.774-1.374.774-2.303Zm7.311-3.716c.684-1.032 1.755-1.548 3.213-1.548 1.445 0 2.581.503 3.407 1.509.838 1.007 1.258 2.258 1.258 3.755 0 1.497-.42 2.749-1.258 3.755-.826.994-1.962 1.49-3.407 1.49-1.561 0-2.69-.555-3.387-1.664v1.432h-2.129v-14.516h2.303v5.787Zm-.077 3.716c0 .929.251 1.697.755 2.303.516.607 1.206.91 2.071.91.851 0 1.535-.303 2.051-.91.516-.619.774-1.387.774-2.303 0-.942-.258-1.716-.774-2.322-.516-.607-1.2-.91-2.051-.91-.865 0-1.555.303-2.071.91-.504.606-.755 1.38-.755 2.322Zm16.272.29-2.671.407c-1.251.193-1.877.671-1.877 1.432 0 .878.593 1.316 1.78 1.316.891 0 1.575-.238 2.052-.716.478-.477.716-1.077.716-1.8v-.639Zm-3.232 4.955c-1.187 0-2.071-.277-2.652-.832-.58-.555-.871-1.29-.871-2.206 0-1.755 1.284-2.813 3.852-3.175l2.903-.406v-.155c0-1.226-.716-1.839-2.148-1.839-1.252 0-1.961.497-2.129 1.491h-2.245c.103-.981.509-1.787 1.219-2.42.723-.645 1.794-.967 3.213-.967 1.432 0 2.51.329 3.232.987.736.658 1.103 1.58 1.103 2.767v4.626c0 .813.097 1.445.291 1.897h-2.187c-.013 0-.033-.045-.058-.135a75.892 75.892 0 0 1-.059-.484c-.012-.22-.019-.452-.019-.697-.684 1.032-1.832 1.548-3.445 1.548Zm7.551-5.245c0-1.484.471-2.729 1.413-3.735.942-1.02 2.142-1.529 3.6-1.529 1.381 0 2.478.393 3.29 1.18.826.774 1.317 1.671 1.471 2.691h-2.361a2.37 2.37 0 0 0-.871-1.336c-.426-.335-.942-.503-1.548-.503-.813 0-1.465.303-1.955.91-.49.593-.736 1.367-.736 2.322 0 .955.246 1.729.736 2.323.49.593 1.142.89 1.955.89.606 0 1.122-.168 1.548-.503a2.37 2.37 0 0 0 .871-1.336h2.361c-.154 1.02-.645 1.923-1.471 2.71-.812.774-1.909 1.161-3.29 1.161-1.458 0-2.658-.503-3.6-1.509-.942-1.02-1.413-2.265-1.413-3.736Zm18.315-5.032h2.903l-3.89 4.239 4.181 5.806h-2.749l-2.961-4.297-1.761 1.897v2.4h-2.304v-14.516h2.304v9.368l4.277-4.897Z" fill="#746E8C"/><path d="M52.128 215.839H27.935a4.032 4.032 0 0 0-4.033 4.032v24.194a4.033 4.033 0 0 0 4.033 4.032h24.193a4.033 4.033 0 0 0 4.032-4.032v-24.194a4.032 4.032 0 0 0-4.032-4.032Zm-7.796 5.914a1.075 1.075 0 0 1 2.151 0v14.366a1.076 1.076 0 0 1-2.151 0v-14.366Zm-5.376-.544a1.076 1.076 0 0 1 2.151 0v15.592a1.076 1.076 0 0 1-2.151 0v-15.592Zm-5.376.544a1.075 1.075 0 0 1 2.15 0v14.366a1.075 1.075 0 1 1-2.15 0v-14.366Zm-5.376 2.15a1.075 1.075 0 0 1 2.15 0v9.672a1.075 1.075 0 0 1-2.15 0v-9.672Zm23.28 16.402c-.165.143-4.15 3.484-11.453 3.484-7.303 0-11.285-3.341-11.452-3.484a1.076 1.076 0 0 1 1.396-1.634c.062.052 3.62 2.968 10.055 2.968 6.517 0 10.018-2.937 10.053-2.966a1.073 1.073 0 0 1 1.515.115c.389.452.337 1.131-.114 1.517Zm.375-6.73a1.075 1.075 0 0 1-2.15 0v-9.672a1.075 1.075 0 0 1 2.15 0v9.672Z" fill="#286EFA"/><rect x=".516" y="288.419" width="420.968" height="79.839" rx="8" fill="#fff"/><path d="M74.766 335.258H72.29l5.323-13.742h2.496l5.342 13.742h-2.555l-.987-2.652h-6.154l-.988 2.652Zm4.084-10.839h-.038l-2.284 6.058h4.606l-2.284-6.058Zm10.562 3.252h3.368c.748 0 1.303-.174 1.664-.523.374-.348.562-.832.562-1.451 0-.62-.188-1.11-.562-1.471-.374-.362-.929-.542-1.664-.542h-3.368v3.987Zm0 2.167v5.42H87.07v-13.742h5.69c1.562 0 2.717.387 3.465 1.161.761.761 1.142 1.768 1.142 3.02 0 1.238-.387 2.238-1.161 3-.775.761-1.923 1.141-3.446 1.141h-3.348Zm12.437-8.322v13.742h-2.342v-13.742h2.342Zm17.3 9.387h-7.645c.09.8.38 1.439.871 1.916.49.465 1.135.697 1.935.697.529 0 1.007-.129 1.432-.387.426-.258.73-.607.91-1.045h2.323a4.72 4.72 0 0 1-1.742 2.477c-.839.619-1.832.929-2.981.929-1.497 0-2.71-.497-3.639-1.49-.916-.994-1.374-2.252-1.374-3.774 0-1.484.465-2.729 1.394-3.736.929-1.006 2.129-1.51 3.6-1.51s2.658.497 3.561 1.491c.916.98 1.374 2.219 1.374 3.716l-.019.716Zm-4.916-4.045c-.723 0-1.323.213-1.8.639-.478.425-.774.993-.891 1.703h5.342c-.103-.71-.387-1.278-.851-1.703-.465-.426-1.065-.639-1.8-.639Zm9.172-1.645v1.335c.232-.439.613-.806 1.142-1.103.542-.31 1.193-.465 1.955-.465 1.187 0 2.103.362 2.748 1.084.658.723.987 1.684.987 2.884v6.31h-2.303v-6.02c0-.709-.168-1.264-.503-1.664-.323-.413-.82-.619-1.491-.619-.735 0-1.316.219-1.742.658-.412.438-.619 1.045-.619 1.819v5.826h-2.303v-10.045h2.129Zm16.733 1.316v-5.787h2.303v14.516h-2.129v-1.432c-.684 1.109-1.813 1.664-3.387 1.664-1.432 0-2.568-.497-3.406-1.49-.826-1.007-1.239-2.258-1.239-3.755 0-1.497.413-2.748 1.239-3.755.838-1.006 1.974-1.51 3.406-1.51 1.458 0 2.529.517 3.213 1.549Zm.097 3.716c0-.942-.258-1.716-.775-2.323-.503-.606-1.187-.909-2.051-.909-.852 0-1.536.303-2.052.909-.516.607-.774 1.381-.774 2.323 0 .916.258 1.684.774 2.303.516.607 1.2.91 2.052.91.864 0 1.548-.303 2.051-.91.517-.606.775-1.374.775-2.303Zm7.311 3.697v5.342h-2.303v-14.071h2.129v1.432c.709-1.11 1.838-1.665 3.387-1.665 1.445 0 2.58.504 3.406 1.51.839 1.007 1.258 2.258 1.258 3.755 0 1.497-.419 2.748-1.258 3.755-.826.993-1.961 1.49-3.406 1.49-1.471 0-2.542-.516-3.213-1.548Zm-.078-3.697c0 .929.252 1.697.755 2.303.516.607 1.207.91 2.071.91.852 0 1.536-.303 2.052-.91.516-.619.774-1.387.774-2.303 0-.942-.258-1.723-.774-2.342s-1.2-.929-2.052-.929c-.864 0-1.555.31-2.071.929-.503.606-.755 1.387-.755 2.342Zm14.628 5.245c-1.549 0-2.807-.51-3.775-1.529-.954-1.019-1.432-2.258-1.432-3.716 0-1.458.478-2.697 1.432-3.716.968-1.032 2.226-1.549 3.775-1.549 1.561 0 2.819.517 3.774 1.549.968 1.019 1.451 2.258 1.451 3.716 0 1.458-.483 2.697-1.451 3.716-.955 1.019-2.213 1.529-3.774 1.529Zm-2.904-5.245c0 .955.271 1.729.813 2.322.555.594 1.252.891 2.091.891.851 0 1.548-.297 2.09-.891.555-.593.832-1.367.832-2.322 0-.968-.277-1.748-.832-2.342-.542-.594-1.239-.89-2.09-.89-.839 0-1.536.296-2.091.89-.542.594-.813 1.374-.813 2.342Zm11.424-6.716c-.425 0-.774-.129-1.045-.387-.271-.271-.406-.613-.406-1.026 0-.426.135-.774.406-1.045.271-.271.62-.407 1.045-.407.413 0 .755.136 1.026.407.271.271.407.619.407 1.045 0 .413-.136.755-.407 1.026-.271.258-.613.387-1.026.387Zm-1.161 11.729v-10.045h2.303v10.045h-2.303Zm7.214-10.045v1.335c.232-.439.612-.806 1.141-1.103.542-.31 1.194-.465 1.955-.465 1.187 0 2.104.362 2.749 1.084.658.723.987 1.684.987 2.884v6.31h-2.303v-6.02c0-.709-.168-1.264-.504-1.664-.322-.413-.819-.619-1.49-.619-.735 0-1.316.219-1.742.658-.413.438-.619 1.045-.619 1.819v5.826h-2.304v-10.045h2.13Zm14.042 7.993v1.994c-.284.077-.684.116-1.2.116-1.961 0-2.942-.987-2.942-2.961v-5.304h-1.529v-1.838h1.529V322.6h2.303v2.613h1.878v1.838h-1.878v5.071c0 .787.375 1.181 1.123 1.181l.716-.097Zm5.324 2.284c-1.38 0-2.419-.323-3.116-.968-.697-.645-1.077-1.471-1.142-2.477h2.226c.026.464.226.839.6 1.122.374.284.897.426 1.568.426.593 0 1.051-.103 1.374-.309.323-.207.484-.484.484-.833 0-.387-.2-.671-.6-.851-.387-.194-.865-.336-1.432-.426a20.186 20.186 0 0 1-1.704-.348 2.996 2.996 0 0 1-1.451-.891c-.387-.438-.581-1.038-.581-1.8 0-.877.361-1.619 1.084-2.226.735-.619 1.703-.929 2.903-.929.684 0 1.284.11 1.8.329.529.207.936.484 1.22.833.296.348.516.703.658 1.064.154.361.245.729.271 1.103h-2.207a1.557 1.557 0 0 0-.522-1.025c-.297-.284-.723-.426-1.278-.426s-.981.109-1.277.329c-.297.206-.445.497-.445.871 0 .348.193.613.58.793.4.181.884.316 1.452.407.568.09 1.135.219 1.703.387a2.825 2.825 0 0 1 1.432.91c.4.451.6 1.051.6 1.8 0 .903-.367 1.651-1.103 2.245-.723.593-1.755.89-3.097.89Z" fill="#746E8C"/><path d="m56.102 330.311-1.807-5.521-3.576-10.951a.614.614 0 0 0-.586-.419.623.623 0 0 0-.586.419l-3.576 10.944H34.09l-3.576-10.944a.618.618 0 0 0-1.172 0l-3.57 10.944-1.806 5.528a1.215 1.215 0 0 0 .445 1.366l15.62 11.283 15.618-11.283a1.225 1.225 0 0 0 .452-1.366Z" fill="#FC6D26"/><path d="m40.03 342.952 5.94-18.17H34.094l5.937 18.17Z" fill="#E24329"/><path d="m40.032 342.952-5.941-18.17h-8.314l14.255 18.17Z" fill="#FC6D26"/><path d="m25.77 324.788-1.807 5.52a1.219 1.219 0 0 0 .445 1.367l15.623 11.285-14.261-18.172Z" fill="#FCA326"/><path d="M25.773 324.788h8.324l-3.582-10.943a.613.613 0 0 0-.586-.419.616.616 0 0 0-.587.419l-3.569 10.943Z" fill="#E24329"/><path d="m40.031 342.952 5.94-18.17h8.327l-14.267 18.17Z" fill="#FC6D26"/><path d="m54.292 324.788 1.807 5.52a1.216 1.216 0 0 1-.445 1.367L40.03 342.951l14.257-18.163h.004Z" fill="#FCA326"/><path d="M54.295 324.788h-8.322l3.575-10.943a.613.613 0 0 1 .586-.42.616.616 0 0 1 .586.42l3.575 10.943Z" fill="#E24329"/><defs><clipPath id="a"><path fill="#fff" transform="translate(23.902 121.484)" d="M0 0h32.258v29.777H0z"/></clipPath></defs></svg>