<svg xmlns="http://www.w3.org/2000/svg" width="560" height="333" fill="none"><rect y="116.003" width="560" height="100" rx="8" fill="#fff"/><circle cx="48" cy="166.003" r="15.189" stroke="#BCB8CE" stroke-width="1.623"/><path d="M48 155.336v10.667l6.667 8c3.2-1.6 4-6 4-8 0-8-7.111-10.444-10.667-10.667Z" fill="#BCB8CE"/><path d="M90.24 170.103c.973 0 1.727-.166 2.26-.5.533-.346.8-.84.8-1.48 0-.466-.147-.846-.44-1.14-.293-.293-.673-.513-1.14-.66-.467-.146-.98-.273-1.54-.38-.56-.12-1.127-.26-1.7-.42a7.618 7.618 0 0 1-1.54-.66c-.467-.266-.847-.666-1.14-1.2-.293-.533-.44-1.186-.44-1.96 0-1.173.46-2.166 1.38-2.98.933-.813 2.167-1.22 3.7-1.22 1.613 0 2.867.44 3.76 1.32.907.867 1.373 1.994 1.4 3.38h-2.38c-.013-.733-.26-1.333-.74-1.8-.48-.48-1.16-.72-2.04-.72-.84 0-1.5.174-1.98.52-.467.334-.7.814-.7 1.44 0 .414.147.76.44 1.04.293.267.673.474 1.14.62.48.134 1 .26 1.56.38.573.107 1.14.254 1.7.44a6.428 6.428 0 0 1 1.56.7c.48.28.867.694 1.16 1.24.293.534.44 1.187.44 1.96 0 1.294-.513 2.327-1.54 3.1-1.027.774-2.393 1.16-4.1 1.16-1.747 0-3.06-.46-3.94-1.38-.88-.92-1.34-2.033-1.38-3.34h2.4c.053.787.34 1.407.86 1.86.52.454 1.247.68 2.18.68Zm12.575-.22v2.06c-.293.08-.707.12-1.24.12-2.027 0-3.04-1.02-3.04-3.06v-5.48h-1.58v-1.9h1.58v-2.7h2.38v2.7h1.94v1.9h-1.94v5.24c0 .814.387 1.22 1.16 1.22l.74-.1Zm8.341-2.76-2.76.42c-1.293.2-1.94.694-1.94 1.48 0 .907.614 1.36 1.84 1.36.92 0 1.627-.246 2.12-.74.494-.493.74-1.113.74-1.86v-.66Zm-3.34 5.12c-1.226 0-2.14-.286-2.74-.86-.6-.573-.9-1.333-.9-2.28 0-1.813 1.327-2.906 3.98-3.28l3-.42v-.16c0-1.266-.74-1.9-2.22-1.9-1.293 0-2.026.514-2.2 1.54h-2.32c.107-1.013.527-1.846 1.26-2.5.747-.666 1.854-1 3.32-1 1.48 0 2.594.34 3.34 1.02.76.68 1.14 1.634 1.14 2.86v4.78c0 .84.1 1.494.3 1.96h-2.26c-.013 0-.033-.046-.06-.14l-.06-.5c-.013-.226-.02-.466-.02-.72-.706 1.067-1.893 1.6-3.56 1.6Zm14.083-10.7v2.22a3.906 3.906 0 0 0-.54-.04c-1.786 0-2.68.96-2.68 2.88v5.4h-2.38v-10.38h2.2v1.44c.587-1.026 1.607-1.54 3.06-1.54l.34.02Zm6.385 8.34v2.06c-.294.08-.707.12-1.24.12-2.027 0-3.04-1.02-3.04-3.06v-5.48h-1.58v-1.9h1.58v-2.7h2.38v2.7h1.94v1.9h-1.94v5.24c0 .814.386 1.22 1.16 1.22l.74-.1Zm9.336-8.26v1.38c.24-.453.634-.833 1.18-1.14.56-.32 1.234-.48 2.02-.48 1.227 0 2.174.374 2.84 1.12.68.747 1.02 1.74 1.02 2.98v6.52h-2.38v-6.22c0-.733-.173-1.306-.52-1.72-.333-.426-.846-.64-1.54-.64-.76 0-1.36.227-1.8.68-.426.454-.64 1.08-.64 1.88v6.02h-2.38v-10.38h2.2Zm19.411 5.88h-7.9c.094.827.394 1.487.9 1.98.507.48 1.174.72 2 .72.547 0 1.04-.133 1.48-.4.44-.266.754-.626.94-1.08h2.4a4.869 4.869 0 0 1-1.8 2.56c-.866.64-1.893.96-3.08.96-1.546 0-2.8-.513-3.76-1.54-.946-1.026-1.42-2.326-1.42-3.9 0-1.533.48-2.82 1.44-3.86s2.2-1.56 3.72-1.56 2.747.514 3.68 1.54c.947 1.014 1.42 2.294 1.42 3.84l-.02.74Zm-5.08-4.18c-.746 0-1.366.22-1.86.66-.493.44-.8 1.027-.92 1.76h5.52c-.106-.733-.4-1.32-.88-1.76-.48-.44-1.1-.66-1.86-.66Zm16.229 8.68-2.34-7.12h-.02l-2.36 7.12h-2.26l-3.62-10.38h2.46l2.32 7.44 2.38-7.44h2.2l2.36 7.46 2.34-7.46h2.42l-3.62 10.38h-2.26Zm21.788-5.96v5.96h-2.38v-6.22c0-1.573-.653-2.36-1.96-2.36-.706 0-1.273.227-1.7.68-.413.454-.62 1.074-.62 1.86v6.04h-2.38v-10.38h2.2v1.38c.254-.466.64-.853 1.16-1.16.52-.306 1.167-.46 1.94-.46 1.44 0 2.48.547 3.12 1.64.88-1.093 2.054-1.64 3.52-1.64 1.214 0 2.147.38 2.8 1.14.654.747.98 1.734.98 2.96v6.52h-2.38v-6.22c0-1.573-.653-2.36-1.96-2.36-.72 0-1.293.234-1.72.7-.413.454-.62 1.094-.62 1.92Zm15.856 1.08-2.76.42c-1.293.2-1.94.694-1.94 1.48 0 .907.614 1.36 1.84 1.36.92 0 1.627-.246 2.12-.74.494-.493.74-1.113.74-1.86v-.66Zm-3.34 5.12c-1.226 0-2.14-.286-2.74-.86-.6-.573-.9-1.333-.9-2.28 0-1.813 1.327-2.906 3.98-3.28l3-.42v-.16c0-1.266-.74-1.9-2.22-1.9-1.293 0-2.026.514-2.2 1.54h-2.32c.107-1.013.527-1.846 1.26-2.5.747-.666 1.854-1 3.32-1 1.48 0 2.594.34 3.34 1.02.76.68 1.14 1.634 1.14 2.86v4.78c0 .84.1 1.494.3 1.96h-2.26c-.013 0-.033-.046-.06-.14l-.06-.5c-.013-.226-.02-.466-.02-.72-.706 1.067-1.893 1.6-3.56 1.6Zm14.083-10.7v2.22a3.906 3.906 0 0 0-.54-.04c-1.786 0-2.68.96-2.68 2.88v5.4h-2.38v-10.38h2.2v1.44c.587-1.026 1.607-1.54 3.06-1.54l.34.02Zm8.525.08h3l-4.02 4.38 4.32 6h-2.84l-3.06-4.44-1.82 1.96v2.48h-2.38v-15h2.38v9.68l4.42-5.06Zm13.834 5.88h-7.9c.093.827.393 1.487.9 1.98.506.48 1.173.72 2 .72.546 0 1.04-.133 1.48-.4.44-.266.753-.626.94-1.08h2.4a4.869 4.869 0 0 1-1.8 2.56c-.867.64-1.894.96-3.08.96-1.547 0-2.8-.513-3.76-1.54-.947-1.026-1.42-2.326-1.42-3.9 0-1.533.48-2.82 1.44-3.86s2.2-1.56 3.72-1.56 2.746.514 3.68 1.54c.946 1.014 1.42 2.294 1.42 3.84l-.02.74Zm-5.08-4.18c-.747 0-1.367.22-1.86.66-.494.44-.8 1.027-.92 1.76h5.52c-.107-.733-.4-1.32-.88-1.76-.48-.44-1.1-.66-1.86-.66Zm11.938 6.56v2.06c-.294.08-.707.12-1.24.12-2.027 0-3.04-1.02-3.04-3.06v-5.48h-1.58v-1.9h1.58v-2.7h2.38v2.7h1.94v1.9h-1.94v5.24c0 .814.386 1.22 1.16 1.22l.74-.1Zm3.141-10c-.44 0-.8-.133-1.08-.4-.28-.28-.42-.633-.42-1.06 0-.44.14-.8.42-1.08.28-.28.64-.42 1.08-.42.427 0 .78.14 1.06.42.28.28.42.64.42 1.08 0 .427-.14.78-.42 1.06-.28.267-.633.4-1.06.4Zm-1.2 12.12v-10.38h2.38v10.38h-2.38Zm7.454-10.38v1.38c.24-.453.633-.833 1.18-1.14.56-.32 1.233-.48 2.02-.48 1.227 0 2.173.374 2.84 1.12.68.747 1.02 1.74 1.02 2.98v6.52h-2.38v-6.22c0-.733-.173-1.306-.52-1.72-.333-.426-.847-.64-1.54-.64-.76 0-1.36.227-1.8.68-.427.454-.64 1.08-.64 1.88v6.02h-2.38v-10.38h2.2Zm17.411 1.48v-1.48h2.2v9.94c0 1.414-.44 2.567-1.32 3.46-.867.907-2.08 1.36-3.64 1.36-1.427 0-2.547-.366-3.36-1.1-.8-.733-1.267-1.573-1.4-2.52h2.38c.293 1.054 1.1 1.58 2.42 1.58.8 0 1.42-.226 1.86-.68.453-.44.68-1.033.68-1.78v-1.62c-.693 1.067-1.787 1.6-3.28 1.6-1.44 0-2.6-.5-3.48-1.5-.867-1.013-1.3-2.26-1.3-3.74 0-1.48.433-2.72 1.3-3.72.88-1.013 2.04-1.52 3.48-1.52 1.587 0 2.74.574 3.46 1.72Zm-.08 3.52c0-.92-.267-1.673-.8-2.26-.533-.586-1.233-.88-2.1-.88-.853 0-1.547.294-2.08.88-.533.587-.8 1.34-.8 2.26 0 .907.267 1.66.8 2.26.533.587 1.227.88 2.08.88.867 0 1.567-.293 2.1-.88.533-.6.8-1.353.8-2.26Zm9.594.2c0-1.533.486-2.82 1.46-3.86.973-1.053 2.213-1.58 3.72-1.58 1.426 0 2.56.407 3.4 1.22.853.8 1.36 1.727 1.52 2.78h-2.44a2.454 2.454 0 0 0-.9-1.38c-.44-.346-.974-.52-1.6-.52-.84 0-1.514.314-2.02.94-.507.614-.76 1.414-.76 2.4 0 .987.253 1.787.76 2.4.506.614 1.18.92 2.02.92.626 0 1.16-.173 1.6-.52.453-.346.753-.806.9-1.38h2.44c-.16 1.054-.667 1.987-1.52 2.8-.84.8-1.974 1.2-3.4 1.2-1.507 0-2.747-.52-3.72-1.56-.974-1.053-1.46-2.34-1.46-3.86Zm18.408.3-2.76.42c-1.293.2-1.94.694-1.94 1.48 0 .907.613 1.36 1.84 1.36.92 0 1.627-.246 2.12-.74.493-.493.74-1.113.74-1.86v-.66Zm-3.34 5.12c-1.227 0-2.14-.286-2.74-.86-.6-.573-.9-1.333-.9-2.28 0-1.813 1.327-2.906 3.98-3.28l3-.42v-.16c0-1.266-.74-1.9-2.22-1.9-1.293 0-2.027.514-2.2 1.54h-2.32c.107-1.013.527-1.846 1.26-2.5.747-.666 1.853-1 3.32-1 1.48 0 2.593.34 3.34 1.02.76.68 1.14 1.634 1.14 2.86v4.78c0 .84.1 1.494.3 1.96h-2.26c-.013 0-.033-.046-.06-.14l-.06-.5c-.013-.226-.02-.466-.02-.72-.707 1.067-1.893 1.6-3.56 1.6Zm17.523-6.2v5.96h-2.38v-6.22c0-1.573-.653-2.36-1.96-2.36-.707 0-1.273.227-1.7.68-.413.454-.62 1.074-.62 1.86v6.04h-2.38v-10.38h2.2v1.38c.253-.466.64-.853 1.16-1.16.52-.306 1.167-.46 1.94-.46 1.44 0 2.48.547 3.12 1.64.88-1.093 2.053-1.64 3.52-1.64 1.213 0 2.147.38 2.8 1.14.653.747.98 1.734.98 2.96v6.52h-2.38v-6.22c0-1.573-.653-2.36-1.96-2.36-.72 0-1.293.234-1.72.7-.413.454-.62 1.094-.62 1.92Zm11.836 4.6v5.52h-2.38v-14.54h2.2v1.48c.733-1.146 1.9-1.72 3.5-1.72 1.493 0 2.667.52 3.52 1.56.867 1.04 1.3 2.334 1.3 3.88 0 1.547-.433 2.84-1.3 3.88-.853 1.027-2.027 1.54-3.52 1.54-1.52 0-2.627-.533-3.32-1.6Zm-.08-3.82c0 .96.26 1.754.78 2.38.533.627 1.247.94 2.14.94.88 0 1.587-.313 2.12-.94.533-.64.8-1.433.8-2.38 0-.973-.267-1.78-.8-2.42-.533-.64-1.24-.96-2.12-.96-.893 0-1.607.32-2.14.96-.52.627-.78 1.434-.78 2.42Zm16.815.3-2.76.42c-1.294.2-1.94.694-1.94 1.48 0 .907.613 1.36 1.84 1.36.92 0 1.626-.246 2.12-.74.493-.493.74-1.113.74-1.86v-.66Zm-3.34 5.12c-1.227 0-2.14-.286-2.74-.86-.6-.573-.9-1.333-.9-2.28 0-1.813 1.326-2.906 3.98-3.28l3-.42v-.16c0-1.266-.74-1.9-2.22-1.9-1.294 0-2.027.514-2.2 1.54h-2.32c.106-1.013.526-1.846 1.26-2.5.746-.666 1.853-1 3.32-1 1.48 0 2.593.34 3.34 1.02.76.68 1.14 1.634 1.14 2.86v4.78c0 .84.1 1.494.3 1.96h-2.26c-.014 0-.034-.046-.06-.14a32.679 32.679 0 0 1-.06-.5 11.7 11.7 0 0 1-.02-.72c-.707 1.067-1.894 1.6-3.56 1.6Zm9.683-12.36c-.44 0-.8-.133-1.08-.4-.28-.28-.42-.633-.42-1.06 0-.44.14-.8.42-1.08.28-.28.64-.42 1.08-.42.426 0 .78.14 1.06.42.28.28.42.64.42 1.08 0 .427-.14.78-.42 1.06-.28.267-.634.4-1.06.4Zm-1.2 12.12v-10.38h2.38v10.38h-2.38Zm12.814-8.9v-1.48h2.2v9.94c0 1.414-.44 2.567-1.32 3.46-.867.907-2.08 1.36-3.64 1.36-1.427 0-2.547-.366-3.36-1.1-.8-.733-1.267-1.573-1.4-2.52h2.38c.293 1.054 1.1 1.58 2.42 1.58.8 0 1.42-.226 1.86-.68.453-.44.68-1.033.68-1.78v-1.62c-.694 1.067-1.787 1.6-3.28 1.6-1.44 0-2.6-.5-3.48-1.5-.867-1.013-1.3-2.26-1.3-3.74 0-1.48.433-2.72 1.3-3.72.88-1.013 2.04-1.52 3.48-1.52 1.586 0 2.74.574 3.46 1.72Zm-.08 3.52c0-.92-.267-1.673-.8-2.26-.534-.586-1.234-.88-2.1-.88-.854 0-1.547.294-2.08.88-.534.587-.8 1.34-.8 2.26 0 .907.266 1.66.8 2.26.533.587 1.226.88 2.08.88.866 0 1.566-.293 2.1-.88.533-.6.8-1.353.8-2.26Zm7.278-5v1.38c.24-.453.634-.833 1.18-1.14.56-.32 1.234-.48 2.02-.48 1.227 0 2.174.374 2.84 1.12.68.747 1.02 1.74 1.02 2.98v6.52h-2.38v-6.22c0-.733-.173-1.306-.52-1.72-.333-.426-.846-.64-1.54-.64-.76 0-1.36.227-1.8.68-.426.454-.64 1.08-.64 1.88v6.02h-2.38v-10.38h2.2Z" fill="#746E8C"/><rect opacity=".2" x="424" y="150.003" width="104" height="32" rx="10.276" fill="#F2C94C"/><path d="M440.784 172.131c1.824 0 3.92-1.056 3.92-3.408 0-2.192-1.568-2.72-3.52-3.488-1.376-.528-2.144-.816-2.128-1.648.016-.848.72-1.328 1.6-1.328.768 0 1.68.4 2.608 1.168l1.152-1.52c-1.152-.912-2.416-1.392-3.76-1.392-1.968 0-3.6 1.392-3.6 3.168 0 2.08 1.712 2.848 3.44 3.456 1.44.512 2.192.832 2.192 1.824 0 .832-.64 1.376-1.888 1.376-.976 0-2.096-.496-2.912-1.488l-1.216 1.488c1.184 1.232 2.656 1.792 4.112 1.792Zm5.837-.128h1.792v-3.968c0-1.536.8-2.336 2.096-2.336 1.072 0 1.696.544 1.696 2.096v4.208h1.792v-4.672c0-2.336-1.2-3.248-2.912-3.248-1.056 0-2 .368-2.656 1.088h-.016v-4.944h-1.792v11.776Zm13.195.128c2.4 0 4.096-1.648 4.096-4.016 0-2.4-1.696-4.032-4.096-4.032-2.464 0-4.096 1.728-4.096 4.032 0 2.288 1.632 4.016 4.096 4.016Zm0-1.632c-1.344 0-2.272-1.056-2.272-2.384 0-1.36.912-2.416 2.272-2.416 1.28 0 2.272.976 2.272 2.416 0 1.408-1.008 2.384-2.272 2.384Zm5.961 1.504h1.792v-3.696c0-1.28.768-2.256 2.128-2.256.128 0 .336.016.544.032v-2h-.224c-.944 0-1.808.464-2.416 1.28h-.032v-1.168h-1.792v7.808Zm8.274.128c1.024 0 1.52-.208 1.984-.464l-.464-1.552c-.416.224-.848.336-1.152.336-.512 0-.752-.288-.752-1.088v-3.648h2.288v-1.52h-2.288v-2.784l-1.792.192v2.592h-.96v1.52h.96v3.824c0 1.744.832 2.592 2.176 2.592Zm10.125 0c1.024 0 1.52-.208 1.984-.464l-.464-1.552c-.416.224-.848.336-1.152.336-.512 0-.752-.288-.752-1.088v-3.648h2.288v-1.52h-2.288v-2.784l-1.792.192v2.592h-.96v1.52h.96v3.824c0 1.744.832 2.592 2.176 2.592Zm10.284-4.128c0-2.272-1.488-3.92-3.68-3.92-2.288 0-3.92 1.616-3.92 4.016 0 2.448 1.68 4.032 4.048 4.032 1.68 0 2.656-.624 3.312-1.472l-1.248-1.072c-.4.496-1.04.912-1.968.912-1.216 0-2.064-.672-2.288-1.808h5.696c.016-.128.048-.4.048-.688Zm-3.696-2.304c1.024 0 1.664.64 1.888 1.584h-3.904c.256-1.024 1.024-1.584 2.016-1.584Zm5.545 6.304h1.792v-3.696c0-1.28.768-2.256 2.128-2.256.128 0 .336.016.544.032v-2h-.224c-.944 0-1.808.464-2.416 1.28h-.032v-1.168h-1.792v7.808Zm5.953 0h1.792v-3.888c0-1.536.8-2.416 1.872-2.416 1.056 0 1.552.832 1.552 2.24v4.064h1.792v-3.888c0-1.536.816-2.416 1.824-2.416 1.056 0 1.52.832 1.52 2.24v4.064h1.792v-4.512c0-2.336-1.024-3.408-2.736-3.408-1.152 0-2.144.448-2.8 1.296h-.032c-.464-.88-1.28-1.296-2.336-1.296-.896 0-1.792.416-2.432 1.184h-.016v-1.072h-1.792v7.808Z" fill="#FF8A00"/><rect y="232.004" width="560" height="100" rx="8" fill="#fff"/><rect opacity=".2" x="452" y="266.004" width="76" height="32" rx="10.276" fill="#EB5757"/><path d="M469.744 288.132c2.832 0 4.544-1.856 4.544-4.8v-6.688h-1.936v6.544c0 1.952-1.088 3.12-2.608 3.12-1.632 0-2.592-1.312-2.592-3.12v-6.544h-1.92v6.688c0 3.056 1.824 4.8 4.512 4.8Zm6.924-.128h1.792v-3.696c0-1.28.768-2.256 2.128-2.256.128 0 .336.016.544.032v-2h-.224c-.944 0-1.808.464-2.416 1.28h-.032v-1.168h-1.792v7.808Zm9.222 3.28c2.896 0 3.984-1.712 3.984-4.08v-7.008h-1.792v.832h-.032c-.656-.624-1.536-.944-2.432-.944-2.16 0-3.712 1.648-3.712 3.936 0 2.32 1.632 3.856 3.808 3.856.96 0 1.776-.352 2.368-.944h.032v.816c0 1.04-.784 1.92-2.32 1.92-1.12 0-1.808-.32-2.656-.768l-.432 1.568c.88.528 2.016.816 3.184.816Zm.064-5.056c-1.264 0-2.224-.864-2.224-2.256 0-1.328.896-2.256 2.224-2.256 1.248 0 2.208.896 2.208 2.224 0 1.328-.912 2.288-2.208 2.288Zm13.303-2.224c0-2.272-1.488-3.92-3.68-3.92-2.288 0-3.92 1.616-3.92 4.016 0 2.448 1.68 4.032 4.048 4.032 1.68 0 2.656-.624 3.312-1.472l-1.248-1.072c-.4.496-1.04.912-1.968.912-1.216 0-2.064-.672-2.288-1.808h5.696c.016-.128.048-.4.048-.688Zm-3.696-2.304c1.024 0 1.664.64 1.888 1.584h-3.904c.256-1.024 1.024-1.584 2.016-1.584Zm5.545 6.304h1.792v-3.92c0-1.536.8-2.384 2.016-2.384 1.072 0 1.696.528 1.696 2.176v4.128h1.792v-4.592c0-2.352-1.152-3.328-2.864-3.328-1.024 0-1.968.416-2.608 1.184h-.032v-1.072h-1.792v7.808Zm11.804.128c1.024 0 1.52-.208 1.984-.464l-.464-1.552c-.416.224-.848.336-1.152.336-.512 0-.752-.288-.752-1.088v-3.648h2.288v-1.52h-2.288v-2.784l-1.792.192v2.592h-.96v1.52h.96v3.824c0 1.744.832 2.592 2.176 2.592Z" fill="#EB5757"/><circle cx="48" cy="280.004" r="15.189" stroke="#BCB8CE" stroke-width="1.623"/><path d="M48 269.337v10.667h10.667c0-6.667-3.334-10.667-10.667-10.667ZM48 290.67v-10.666h10.667c0 6.666-3.334 10.666-10.667 10.666ZM48 290.67v-10.666l-10.667 3.333c2 4.667 5.334 7.333 10.667 7.333Z" fill="#BCB8CE"/><path d="M95.68 286.724c-1.107 1.053-2.52 1.58-4.24 1.58-1.72 0-3.133-.527-4.24-1.58-1.107-1.054-1.66-2.574-1.66-4.56v-8.36h2.42v8.46c0 1.173.293 2.1.88 2.78.6.68 1.467 1.02 2.6 1.02s1.993-.34 2.58-1.02c.6-.68.9-1.607.9-2.78v-8.46h2.42v8.36c0 1.986-.553 3.506-1.66 4.56Zm7.023-.08v5.52h-2.38v-14.54h2.2v1.48c.733-1.147 1.9-1.72 3.5-1.72 1.493 0 2.666.52 3.52 1.56.866 1.04 1.3 2.333 1.3 3.88 0 1.546-.434 2.84-1.3 3.88-.854 1.026-2.027 1.54-3.52 1.54-1.52 0-2.627-.534-3.32-1.6Zm-.08-3.82c0 .96.26 1.753.78 2.38.533.626 1.246.94 2.14.94.88 0 1.586-.314 2.12-.94.533-.64.8-1.434.8-2.38 0-.974-.267-1.78-.8-2.42-.534-.64-1.24-.96-2.12-.96-.894 0-1.607.32-2.14.96-.52.626-.78 1.433-.78 2.42Zm17.855-3.84v-5.98h2.38v15h-2.2v-1.48c-.707 1.146-1.874 1.72-3.5 1.72-1.48 0-2.654-.514-3.52-1.54-.854-1.04-1.28-2.334-1.28-3.88 0-1.547.426-2.84 1.28-3.88.866-1.04 2.04-1.56 3.52-1.56 1.506 0 2.613.533 3.32 1.6Zm.1 3.84c0-.974-.267-1.774-.8-2.4-.52-.627-1.227-.94-2.12-.94-.88 0-1.587.313-2.12.94-.534.626-.8 1.426-.8 2.4 0 .946.266 1.74.8 2.38.533.626 1.24.94 2.12.94.893 0 1.6-.314 2.12-.94.533-.627.8-1.42.8-2.38Zm11.575.3-2.76.42c-1.294.2-1.94.693-1.94 1.48 0 .906.613 1.36 1.84 1.36.92 0 1.626-.247 2.12-.74.493-.494.74-1.114.74-1.86v-.66Zm-3.34 5.12c-1.227 0-2.14-.287-2.74-.86-.6-.574-.9-1.334-.9-2.28 0-1.814 1.326-2.907 3.98-3.28l3-.42v-.16c0-1.267-.74-1.9-2.22-1.9-1.294 0-2.027.513-2.2 1.54h-2.32c.106-1.014.526-1.847 1.26-2.5.746-.667 1.853-1 3.32-1 1.48 0 2.593.34 3.34 1.02.76.68 1.14 1.633 1.14 2.86v4.78c0 .84.1 1.493.3 1.96h-2.26c-.014 0-.034-.047-.06-.14a36.158 36.158 0 0 1-.06-.5c-.014-.227-.02-.467-.02-.72-.707 1.066-1.894 1.6-3.56 1.6Zm12.928-2.36v2.06c-.294.08-.707.12-1.24.12-2.027 0-3.04-1.02-3.04-3.06v-5.48h-1.58v-1.9h1.58v-2.7h2.38v2.7h1.94v1.9h-1.94v5.24c0 .813.386 1.22 1.16 1.22l.74-.1Zm11.286-2.38h-7.9c.094.826.394 1.486.9 1.98.507.48 1.174.72 2 .72.547 0 1.04-.134 1.48-.4.44-.267.754-.627.94-1.08h2.4a4.877 4.877 0 0 1-1.8 2.56c-.866.64-1.893.96-3.08.96-1.546 0-2.8-.514-3.76-1.54-.946-1.027-1.42-2.327-1.42-3.9 0-1.534.48-2.82 1.44-3.86s2.2-1.56 3.72-1.56 2.747.513 3.68 1.54c.947 1.013 1.42 2.293 1.42 3.84l-.02.74Zm-5.08-4.18c-.746 0-1.366.22-1.86.66-.493.44-.8 1.026-.92 1.76h5.52c-.106-.734-.4-1.32-.88-1.76-.48-.44-1.1-.66-1.86-.66Zm14.853-6.32v5.74c.627-.907 1.634-1.36 3.02-1.36 1.227 0 2.174.373 2.84 1.12.68.746 1.02 1.74 1.02 2.98v6.52h-2.38v-6.22c0-.734-.173-1.307-.52-1.72-.333-.427-.846-.64-1.54-.64-.76 0-1.36.226-1.8.68-.426.453-.64 1.086-.64 1.9v6h-2.38v-15h2.38Zm19.231 10.5h-7.9c.094.826.394 1.486.9 1.98.507.48 1.174.72 2 .72.547 0 1.04-.134 1.48-.4.44-.267.754-.627.94-1.08h2.4a4.877 4.877 0 0 1-1.8 2.56c-.866.64-1.893.96-3.08.96-1.546 0-2.8-.514-3.76-1.54-.946-1.027-1.42-2.327-1.42-3.9 0-1.534.48-2.82 1.44-3.86s2.2-1.56 3.72-1.56 2.747.513 3.68 1.54c.947 1.013 1.42 2.293 1.42 3.84l-.02.74Zm-5.08-4.18c-.746 0-1.366.22-1.86.66-.493.44-.8 1.026-.92 1.76h5.52c-.106-.734-.4-1.32-.88-1.76-.48-.44-1.1-.66-1.86-.66Zm9.658 8.68h-2.38v-15h2.38v15Zm5.254-1.36v5.52h-2.38v-14.54h2.2v1.48c.733-1.147 1.9-1.72 3.5-1.72 1.493 0 2.667.52 3.52 1.56.867 1.04 1.3 2.333 1.3 3.88 0 1.546-.433 2.84-1.3 3.88-.853 1.026-2.027 1.54-3.52 1.54-1.52 0-2.627-.534-3.32-1.6Zm-.08-3.82c0 .96.26 1.753.78 2.38.533.626 1.247.94 2.14.94.88 0 1.587-.314 2.12-.94.533-.64.8-1.434.8-2.38 0-.974-.267-1.78-.8-2.42-.533-.64-1.24-.96-2.12-.96-.893 0-1.607.32-2.14.96-.52.626-.78 1.433-.78 2.42Zm23.05-3.84v-5.98h2.38v15h-2.2v-1.48c-.707 1.146-1.873 1.72-3.5 1.72-1.48 0-2.653-.514-3.52-1.54-.853-1.04-1.28-2.334-1.28-3.88 0-1.547.427-2.84 1.28-3.88.867-1.04 2.04-1.56 3.52-1.56 1.507 0 2.613.533 3.32 1.6Zm.1 3.84c0-.974-.267-1.774-.8-2.4-.52-.627-1.227-.94-2.12-.94-.88 0-1.587.313-2.12.94-.533.626-.8 1.426-.8 2.4 0 .946.267 1.74.8 2.38.533.626 1.24.94 2.12.94.893 0 1.6-.314 2.12-.94.533-.627.8-1.42.8-2.38Zm9.875 5.42c-1.6 0-2.9-.527-3.9-1.58-.987-1.054-1.48-2.334-1.48-3.84 0-1.507.493-2.787 1.48-3.84 1-1.067 2.3-1.6 3.9-1.6 1.613 0 2.913.533 3.9 1.6 1 1.053 1.5 2.333 1.5 3.84 0 1.506-.5 2.786-1.5 3.84-.987 1.053-2.287 1.58-3.9 1.58Zm-3-5.42c0 .986.28 1.786.84 2.4.573.613 1.293.92 2.16.92.88 0 1.6-.307 2.16-.92.573-.614.86-1.414.86-2.4 0-1-.287-1.807-.86-2.42-.56-.614-1.28-.92-2.16-.92-.867 0-1.587.306-2.16.92-.56.613-.84 1.42-.84 2.42Zm9.925 0c0-1.534.486-2.82 1.46-3.86.973-1.054 2.213-1.58 3.72-1.58 1.426 0 2.56.406 3.4 1.22.853.8 1.36 1.726 1.52 2.78h-2.44a2.447 2.447 0 0 0-.9-1.38c-.44-.347-.974-.52-1.6-.52-.84 0-1.514.313-2.02.94-.507.613-.76 1.413-.76 2.4 0 .986.253 1.786.76 2.4.506.613 1.18.92 2.02.92.626 0 1.16-.174 1.6-.52.453-.347.753-.807.9-1.38h2.44c-.16 1.053-.667 1.986-1.52 2.8-.84.8-1.974 1.2-3.4 1.2-1.507 0-2.747-.52-3.72-1.56-.974-1.054-1.46-2.34-1.46-3.86Zm18.825.78v-5.98h2.38v10.38h-2.2v-1.34c-.24.453-.633.833-1.18 1.14-.533.293-1.193.44-1.98.44-1.227 0-2.173-.367-2.84-1.1-.653-.747-.98-1.74-.98-2.98v-6.54h2.38v6.22c0 1.573.673 2.36 2.02 2.36.747 0 1.333-.22 1.76-.66.427-.454.64-1.1.64-1.94Zm14.293-1.56v5.96h-2.38v-6.22c0-1.574-.653-2.36-1.96-2.36-.707 0-1.273.226-1.7.68-.413.453-.62 1.073-.62 1.86v6.04h-2.38v-10.38h2.2v1.38c.253-.467.64-.854 1.16-1.16.52-.307 1.167-.46 1.94-.46 1.44 0 2.48.546 3.12 1.64.88-1.094 2.053-1.64 3.52-1.64 1.213 0 2.147.38 2.8 1.14.653.746.98 1.733.98 2.96v6.52h-2.38v-6.22c0-1.574-.653-2.36-1.96-2.36-.72 0-1.293.233-1.72.7-.413.453-.62 1.093-.62 1.92Zm19.016 1.46h-7.9c.094.826.394 1.486.9 1.98.507.48 1.174.72 2 .72.547 0 1.04-.134 1.48-.4.44-.267.754-.627.94-1.08h2.4a4.877 4.877 0 0 1-1.8 2.56c-.866.64-1.893.96-3.08.96-1.546 0-2.8-.514-3.76-1.54-.946-1.027-1.42-2.327-1.42-3.9 0-1.534.48-2.82 1.44-3.86s2.2-1.56 3.72-1.56 2.747.513 3.68 1.54c.947 1.013 1.42 2.293 1.42 3.84l-.02.74Zm-5.08-4.18c-.746 0-1.366.22-1.86.66-.493.44-.8 1.026-.92 1.76h5.52c-.106-.734-.4-1.32-.88-1.76-.48-.44-1.1-.66-1.86-.66Zm9.478-1.7v1.38c.24-.454.633-.834 1.18-1.14.56-.32 1.233-.48 2.02-.48 1.227 0 2.173.373 2.84 1.12.68.746 1.02 1.74 1.02 2.98v6.52h-2.38v-6.22c0-.734-.173-1.307-.52-1.72-.333-.427-.847-.64-1.54-.64-.76 0-1.36.226-1.8.68-.427.453-.64 1.08-.64 1.88v6.02h-2.38v-10.38h2.2Zm14.511 8.26v2.06c-.294.08-.707.12-1.24.12-2.027 0-3.04-1.02-3.04-3.06v-5.48h-1.58v-1.9h1.58v-2.7h2.38v2.7h1.94v1.9h-1.94v5.24c0 .813.386 1.22 1.16 1.22l.74-.1Zm5.501 2.36c-1.426 0-2.5-.334-3.22-1-.72-.667-1.113-1.52-1.18-2.56h2.3c.027.48.234.866.62 1.16.387.293.927.44 1.62.44.614 0 1.087-.107 1.42-.32.334-.214.5-.5.5-.86 0-.4-.206-.694-.62-.88-.4-.2-.893-.347-1.48-.44a21.208 21.208 0 0 1-1.76-.36 3.102 3.102 0 0 1-1.5-.92c-.4-.454-.6-1.074-.6-1.86 0-.907.374-1.674 1.12-2.3.76-.64 1.76-.96 3-.96.707 0 1.327.113 1.86.34.547.213.967.5 1.26.86.307.36.534.726.68 1.1.16.373.254.753.28 1.14h-2.28a1.606 1.606 0 0 0-.54-1.06c-.306-.294-.746-.44-1.32-.44-.573 0-1.013.113-1.32.34-.306.213-.46.513-.46.9 0 .36.2.633.6.82.414.186.914.326 1.5.42.587.093 1.174.226 1.76.4.587.16 1.08.473 1.48.94.414.466.62 1.086.62 1.86 0 .933-.38 1.706-1.14 2.32-.746.613-1.813.92-3.2.92Z" fill="#746E8C"/><rect width="560" height="100" rx="8" fill="#fff"/><rect opacity=".2" x="426" y="34.003" width="102" height="32" rx="10.276" fill="#56CCF2"/><path d="M439.392 56.003h7.2v-1.728h-5.264v-9.632h-1.936v11.36Zm12.58.128c2.4 0 4.096-1.648 4.096-4.016 0-2.4-1.696-4.032-4.096-4.032-2.464 0-4.096 1.728-4.096 4.032 0 2.288 1.632 4.016 4.096 4.016Zm0-1.632c-1.344 0-2.272-1.056-2.272-2.384 0-1.36.912-2.416 2.272-2.416 1.28 0 2.272.976 2.272 2.416 0 1.408-1.008 2.384-2.272 2.384Zm5.962 1.504h1.792v-3.92c0-1.536.8-2.384 2.016-2.384 1.072 0 1.696.528 1.696 2.176v4.128h1.792v-4.592c0-2.352-1.152-3.328-2.864-3.328-1.024 0-1.968.416-2.608 1.184h-.032v-1.072h-1.792v7.808Zm12.972 3.28c2.896 0 3.984-1.712 3.984-4.08v-7.008h-1.792v.832h-.032c-.656-.624-1.536-.944-2.432-.944-2.16 0-3.712 1.648-3.712 3.936 0 2.32 1.632 3.856 3.808 3.856.96 0 1.776-.352 2.368-.944h.032v.816c0 1.04-.784 1.92-2.32 1.92-1.12 0-1.808-.32-2.656-.768l-.432 1.568c.88.528 2.016.816 3.184.816Zm.064-5.056c-1.264 0-2.224-.864-2.224-2.256 0-1.328.896-2.256 2.224-2.256 1.248 0 2.208.896 2.208 2.224 0 1.328-.912 2.288-2.208 2.288Zm12.768 1.904c1.024 0 1.52-.208 1.984-.464l-.464-1.552c-.416.224-.848.336-1.152.336-.512 0-.752-.288-.752-1.088v-3.648h2.288v-1.52h-2.288v-2.784l-1.792.192v2.592h-.96v1.52h.96v3.824c0 1.744.832 2.592 2.176 2.592Zm10.285-4.128c0-2.272-1.488-3.92-3.68-3.92-2.288 0-3.92 1.616-3.92 4.016 0 2.448 1.68 4.032 4.048 4.032 1.68 0 2.656-.624 3.312-1.472l-1.248-1.072c-.4.496-1.04.912-1.968.912-1.216 0-2.064-.672-2.288-1.808h5.696c.016-.128.048-.4.048-.688Zm-3.696-2.304c1.024 0 1.664.64 1.888 1.584h-3.904c.256-1.024 1.024-1.584 2.016-1.584Zm5.544 6.304h1.792v-3.696c0-1.28.768-2.256 2.128-2.256.128 0 .336.016.544.032v-2h-.224c-.944 0-1.808.464-2.416 1.28h-.032v-1.168h-1.792v7.808Zm5.953 0h1.792v-3.888c0-1.536.8-2.416 1.872-2.416 1.056 0 1.552.832 1.552 2.24v4.064h1.792v-3.888c0-1.536.816-2.416 1.824-2.416 1.056 0 1.52.832 1.52 2.24v4.064h1.792v-4.512c0-2.336-1.024-3.408-2.736-3.408-1.152 0-2.144.448-2.8 1.296h-.032c-.464-.88-1.28-1.296-2.336-1.296-.896 0-1.792.416-2.432 1.184h-.016v-1.072h-1.792v7.808Z" fill="#28B0DC"/><circle cx="48" cy="50.003" r="14.986" stroke="#BCB8CE" stroke-width="2.028"/><path d="M48 39.336v10.667l7.92-8c-1.752-1.727-4.366-2.667-7.92-2.667Z" fill="#BCB8CE"/><path d="M88.1 41.803v14.2h-2.42v-14.2h2.42Zm5.321 3.82v1.38c.24-.453.634-.833 1.18-1.14.56-.32 1.234-.48 2.02-.48 1.227 0 2.174.374 2.84 1.12.68.747 1.02 1.74 1.02 2.98v6.52h-2.38v-6.22c0-.733-.173-1.306-.52-1.72-.333-.426-.846-.64-1.54-.64-.76 0-1.36.227-1.8.68-.426.454-.64 1.08-.64 1.88v6.02h-2.38v-10.38h2.2Zm14.511 8.26v2.06c-.293.08-.707.12-1.24.12-2.027 0-3.04-1.02-3.04-3.06v-5.48h-1.58v-1.9h1.58v-2.7h2.38v2.7h1.94v1.9h-1.94v5.24c0 .814.387 1.22 1.16 1.22l.74-.1Zm7.542-8.34v2.22a3.837 3.837 0 0 0-.54-.04c-1.787 0-2.68.96-2.68 2.88v5.4h-2.38v-10.38h2.2v1.44c.586-1.026 1.606-1.54 3.06-1.54l.34.02Zm5.975 10.7c-1.6 0-2.9-.526-3.9-1.58-.987-1.053-1.48-2.333-1.48-3.84 0-1.506.493-2.786 1.48-3.84 1-1.066 2.3-1.6 3.9-1.6 1.613 0 2.913.534 3.9 1.6 1 1.054 1.5 2.334 1.5 3.84 0 1.507-.5 2.787-1.5 3.84-.987 1.054-2.287 1.58-3.9 1.58Zm-3-5.42c0 .987.28 1.787.84 2.4.573.614 1.293.92 2.16.92.88 0 1.6-.306 2.16-.92.573-.613.86-1.413.86-2.4 0-1-.287-1.806-.86-2.42-.56-.613-1.28-.92-2.16-.92-.867 0-1.587.307-2.16.92-.56.614-.84 1.42-.84 2.42Zm18.044-3.84v-5.98h2.38v15h-2.2v-1.48c-.706 1.147-1.873 1.72-3.5 1.72-1.48 0-2.653-.513-3.52-1.54-.853-1.04-1.28-2.333-1.28-3.88 0-1.546.427-2.84 1.28-3.88.867-1.04 2.04-1.56 3.52-1.56 1.507 0 2.614.534 3.32 1.6Zm.1 3.84c0-.973-.266-1.773-.8-2.4-.52-.626-1.226-.94-2.12-.94-.88 0-1.586.314-2.12.94-.533.627-.8 1.427-.8 2.4 0 .947.267 1.74.8 2.38.534.627 1.24.94 2.12.94.894 0 1.6-.313 2.12-.94.534-.626.8-1.42.8-2.38Zm11.875.78v-5.98h2.38v10.38h-2.2v-1.34c-.24.454-.633.834-1.18 1.14-.533.294-1.193.44-1.98.44-1.227 0-2.173-.366-2.84-1.1-.653-.746-.98-1.74-.98-2.98v-6.54h2.38v6.22c0 1.574.673 2.36 2.02 2.36.747 0 1.333-.22 1.76-.66.427-.453.64-1.1.64-1.94Zm4.573-.78c0-1.533.487-2.82 1.46-3.86.974-1.053 2.214-1.58 3.72-1.58 1.427 0 2.56.407 3.4 1.22.854.8 1.36 1.727 1.52 2.78h-2.44a2.441 2.441 0 0 0-.9-1.38c-.44-.346-.973-.52-1.6-.52-.84 0-1.513.314-2.02.94-.506.614-.76 1.414-.76 2.4 0 .987.254 1.787.76 2.4.507.614 1.18.92 2.02.92.627 0 1.16-.173 1.6-.52a2.44 2.44 0 0 0 .9-1.38h2.44c-.16 1.054-.666 1.987-1.52 2.8-.84.8-1.973 1.2-3.4 1.2-1.506 0-2.746-.52-3.72-1.56-.973-1.053-1.46-2.34-1.46-3.86Zm21.568.68h-7.9c.094.827.394 1.487.9 1.98.507.48 1.174.72 2 .72.547 0 1.04-.133 1.48-.4.44-.266.754-.626.94-1.08h2.4a4.872 4.872 0 0 1-1.8 2.56c-.866.64-1.893.96-3.08.96-1.546 0-2.8-.513-3.76-1.54-.946-1.026-1.42-2.326-1.42-3.9 0-1.533.48-2.82 1.44-3.86s2.2-1.56 3.72-1.56 2.747.514 3.68 1.54c.947 1.014 1.42 2.294 1.42 3.84l-.02.74Zm-5.08-4.18c-.746 0-1.366.22-1.86.66-.493.44-.8 1.027-.92 1.76h5.52c-.106-.733-.4-1.32-.88-1.76-.48-.44-1.1-.66-1.86-.66Zm18.874 3.8-2.76.42c-1.294.2-1.94.694-1.94 1.48 0 .907.613 1.36 1.84 1.36.92 0 1.626-.246 2.12-.74.493-.493.74-1.113.74-1.86v-.66Zm-3.34 5.12c-1.227 0-2.14-.286-2.74-.86-.6-.573-.9-1.333-.9-2.28 0-1.813 1.326-2.906 3.98-3.28l3-.42v-.16c0-1.266-.74-1.9-2.22-1.9-1.294 0-2.027.514-2.2 1.54h-2.32c.106-1.013.526-1.846 1.26-2.5.746-.666 1.853-1 3.32-1 1.48 0 2.593.34 3.34 1.02.76.68 1.14 1.634 1.14 2.86v4.78c0 .84.1 1.494.3 1.96h-2.26c-.014 0-.034-.046-.06-.14a34.159 34.159 0 0 1-.06-.5c-.014-.226-.02-.466-.02-.72-.707 1.067-1.894 1.6-3.56 1.6Zm17.453-.24-2.34-7.12h-.02l-2.36 7.12h-2.26l-3.62-10.38h2.46l2.32 7.44 2.38-7.44h2.2l2.36 7.46 2.34-7.46h2.42l-3.62 10.38h-2.26Zm16.664-4.5h-7.9c.093.827.393 1.487.9 1.98.506.48 1.173.72 2 .72a2.8 2.8 0 0 0 1.48-.4c.44-.266.753-.626.94-1.08h2.4a4.872 4.872 0 0 1-1.8 2.56c-.867.64-1.894.96-3.08.96-1.547 0-2.8-.513-3.76-1.54-.947-1.026-1.42-2.326-1.42-3.9 0-1.533.48-2.82 1.44-3.86s2.2-1.56 3.72-1.56 2.746.514 3.68 1.54c.946 1.014 1.42 2.294 1.42 3.84l-.02.74Zm-5.08-4.18c-.747 0-1.367.22-1.86.66-.494.44-.8 1.027-.92 1.76h5.52c-.107-.733-.4-1.32-.88-1.76-.48-.44-1.1-.66-1.86-.66Zm10.838 8.92c-1.427 0-2.5-.333-3.22-1-.72-.666-1.114-1.52-1.18-2.56h2.3c.026.48.233.867.62 1.16.386.294.926.44 1.619.44.614 0 1.087-.106 1.421-.32.333-.213.5-.5.5-.86 0-.4-.207-.693-.62-.88-.4-.2-.894-.346-1.48-.44a20.493 20.493 0 0 1-1.76-.36 3.09 3.09 0 0 1-1.5-.92c-.4-.453-.6-1.073-.6-1.86 0-.906.373-1.673 1.12-2.3.76-.64 1.76-.96 3-.96.706 0 1.326.114 1.86.34.546.214.966.5 1.26.86.306.36.533.727.68 1.1.16.374.253.754.28 1.14h-2.28a1.609 1.609 0 0 0-.54-1.06c-.307-.293-.747-.44-1.32-.44-.574 0-1.014.114-1.32.34-.307.214-.46.514-.46.9 0 .36.2.634.6.82.413.187.913.327 1.5.42a13.99 13.99 0 0 1 1.76.4c.586.16 1.08.474 1.48.94.413.467.62 1.087.62 1.86 0 .934-.38 1.707-1.14 2.32-.747.614-1.814.92-3.2.92Zm11.179 0c-1.6 0-2.9-.526-3.9-1.58-.987-1.053-1.48-2.333-1.48-3.84 0-1.506.493-2.786 1.48-3.84 1-1.066 2.3-1.6 3.9-1.6 1.613 0 2.913.534 3.9 1.6 1 1.054 1.5 2.334 1.5 3.84 0 1.507-.5 2.787-1.5 3.84-.987 1.054-2.287 1.58-3.9 1.58Zm-3-5.42c0 .987.28 1.787.84 2.4.573.614 1.293.92 2.16.92.88 0 1.6-.306 2.16-.92.573-.613.86-1.413.86-2.4 0-1-.287-1.806-.86-2.42-.56-.613-1.28-.92-2.16-.92-.867 0-1.587.307-2.16.92-.56.614-.84 1.42-.84 2.42Zm19.644-.78v5.96h-2.38v-6.22c0-1.573-.653-2.36-1.96-2.36-.706 0-1.273.227-1.7.68-.413.454-.62 1.074-.62 1.86v6.04h-2.38v-10.38h2.2v1.38c.254-.466.64-.853 1.16-1.16.52-.306 1.167-.46 1.94-.46 1.44 0 2.48.547 3.12 1.64.88-1.093 2.054-1.64 3.52-1.64 1.214 0 2.147.38 2.8 1.14.654.747.98 1.734.98 2.96v6.52h-2.38v-6.22c0-1.573-.653-2.36-1.96-2.36-.72 0-1.293.234-1.72.7-.413.454-.62 1.094-.62 1.92Zm19.016 1.46h-7.9c.094.827.394 1.487.9 1.98.507.48 1.174.72 2 .72.547 0 1.04-.133 1.48-.4.44-.266.754-.626.94-1.08h2.4a4.872 4.872 0 0 1-1.8 2.56c-.866.64-1.893.96-3.08.96-1.546 0-2.8-.513-3.76-1.54-.946-1.026-1.42-2.326-1.42-3.9 0-1.533.48-2.82 1.44-3.86s2.2-1.56 3.72-1.56 2.747.514 3.68 1.54c.947 1.014 1.42 2.294 1.42 3.84l-.02.74Zm-5.08-4.18c-.746 0-1.366.22-1.86.66-.493.44-.8 1.027-.92 1.76h5.52c-.106-.733-.4-1.32-.88-1.76-.48-.44-1.1-.66-1.86-.66Zm12.893-1.7v-1.1c0-1.173.3-2.053.9-2.64.6-.586 1.42-.88 2.46-.88l.8.06v2.1c-.08-.026-.226-.04-.44-.04-.48 0-.826.12-1.04.36-.2.227-.3.62-.3 1.18v.96h1.84v1.9h-1.84v8.48h-2.38v-8.48h-1.66v-1.9h1.66Zm15.351 5.88h-7.9c.094.827.394 1.487.9 1.98.507.48 1.174.72 2 .72.547 0 1.04-.133 1.48-.4.44-.266.754-.626.94-1.08h2.4a4.872 4.872 0 0 1-1.8 2.56c-.866.64-1.893.96-3.08.96-1.546 0-2.8-.513-3.76-1.54-.946-1.026-1.42-2.326-1.42-3.9 0-1.533.48-2.82 1.44-3.86s2.2-1.56 3.72-1.56 2.747.514 3.68 1.54c.947 1.014 1.42 2.294 1.42 3.84l-.02.74Zm-5.08-4.18c-.746 0-1.366.22-1.86.66-.493.44-.8 1.027-.92 1.76h5.52c-.106-.733-.4-1.32-.88-1.76-.48-.44-1.1-.66-1.86-.66Zm13.678 3.8-2.76.42c-1.293.2-1.94.694-1.94 1.48 0 .907.614 1.36 1.84 1.36.92 0 1.627-.246 2.12-.74.494-.493.74-1.113.74-1.86v-.66Zm-3.34 5.12c-1.226 0-2.14-.286-2.74-.86-.6-.573-.9-1.333-.9-2.28 0-1.813 1.327-2.906 3.98-3.28l3-.42v-.16c0-1.266-.74-1.9-2.22-1.9-1.293 0-2.026.514-2.2 1.54h-2.32c.107-1.013.527-1.846 1.26-2.5.747-.666 1.854-1 3.32-1 1.48 0 2.594.34 3.34 1.02.76.68 1.14 1.634 1.14 2.86v4.78c0 .84.1 1.494.3 1.96h-2.26c-.013 0-.033-.046-.06-.14l-.06-.5a12.58 12.58 0 0 1-.02-.72c-.706 1.067-1.893 1.6-3.56 1.6Zm12.928-2.36v2.06c-.293.08-.706.12-1.24.12-2.026 0-3.04-1.02-3.04-3.06v-5.48h-1.58v-1.9h1.58v-2.7h2.38v2.7h1.94v1.9h-1.94v5.24c0 .814.387 1.22 1.16 1.22l.74-.1Zm8.642-2.28v-5.98h2.38v10.38h-2.2v-1.34c-.24.454-.633.834-1.18 1.14-.533.294-1.193.44-1.98.44-1.227 0-2.173-.366-2.84-1.1-.653-.746-.98-1.74-.98-2.98v-6.54h2.38v6.22c0 1.574.673 2.36 2.02 2.36.747 0 1.333-.22 1.76-.66.427-.453.64-1.1.64-1.94Zm10.853-6.06v2.22a3.837 3.837 0 0 0-.54-.04c-1.787 0-2.68.96-2.68 2.88v5.4h-2.38v-10.38h2.2v1.44c.587-1.026 1.607-1.54 3.06-1.54l.34.02Zm10.835 5.96h-7.9c.093.827.393 1.487.9 1.98.507.48 1.173.72 2 .72.547 0 1.04-.133 1.48-.4.44-.266.753-.626.94-1.08h2.4a4.872 4.872 0 0 1-1.8 2.56c-.867.64-1.893.96-3.08.96-1.547 0-2.8-.513-3.76-1.54-.947-1.026-1.42-2.326-1.42-3.9 0-1.533.48-2.82 1.44-3.86s2.2-1.56 3.72-1.56 2.747.514 3.68 1.54c.947 1.014 1.42 2.294 1.42 3.84l-.02.74Zm-5.08-4.18c-.747 0-1.367.22-1.86.66-.493.44-.8 1.027-.92 1.76h5.52c-.107-.733-.4-1.32-.88-1.76-.48-.44-1.1-.66-1.86-.66Z" fill="#746E8C"/></svg>